<?xml version="1.0" standalone="no"?>
<!DOCTYPE svg PUBLIC "-//W3C//DTD SVG 20010904//EN"
 "http://www.w3.org/TR/2001/REC-SVG-20010904/DTD/svg10.dtd">
<svg version="1.0" xmlns="http://www.w3.org/2000/svg"
 width="1920.000000pt" height="1080.000000pt" viewBox="0 0 1920.000000 1080.000000"
 preserveAspectRatio="xMidYMid meet">

<g transform="translate(0.000000,1080.000000) scale(0.100000,-0.100000)"
fill="#000000" stroke="none">
<path d="M17765 8963 c-61 -18 -143 -75 -186 -128 -17 -22 -49 -76 -70 -120
-48 -98 -64 -209 -55 -364 l6 -103 -28 18 c-360 239 -621 263 -894 85 -76 -50
-100 -76 -161 -177 -34 -57 -85 -111 -150 -159 -30 -22 -47 -87 -47 -182 0
-171 274 -441 561 -553 93 -36 151 -50 244 -58 l70 -7 -121 -82 c-176 -120
-240 -189 -361 -391 -72 -119 -90 -183 -73 -257 14 -65 56 -149 94 -193 33
-38 119 -81 200 -101 67 -16 113 -42 172 -94 85 -76 136 -92 248 -76 132 18
292 119 471 296 94 92 158 188 211 313 15 36 30 69 34 73 4 4 15 -29 26 -75
27 -118 27 -435 0 -558 -29 -133 -80 -280 -146 -417 l-60 -126 -87 84 c-167
160 -333 242 -577 284 -99 17 -297 20 -396 5 -540 -78 -905 -517 -949 -1143
-44 -602 183 -1092 605 -1309 367 -189 806 -164 1149 65 80 53 218 195 278
285 86 128 156 297 201 482 18 75 36 260 36 377 0 214 -34 414 -100 579 l-31
79 55 115 c137 291 183 520 173 869 -5 189 -24 301 -71 413 -24 56 -20 56 33
0 51 -53 175 -139 269 -186 135 -68 341 -88 483 -46 67 20 80 28 141 89 72 73
70 71 108 251 19 92 37 146 96 300 18 48 17 185 -2 251 -42 141 -130 256 -252
328 -156 92 -319 110 -489 54 l-92 -31 85 93 c149 161 194 238 239 405 40 153
28 281 -41 417 -70 139 -166 198 -344 212 -88 7 -99 11 -158 49 -119 77 -236
99 -347 65z m253 -114 c43 -26 68 -48 65 -56 -3 -7 0 -13 6 -13 17 0 33 -37
19 -46 -7 -5 -8 -3 -3 7 5 8 4 10 0 6 -14 -12 -15 -41 -3 -48 8 -5 -5 -66 -45
-201 -32 -106 -57 -197 -57 -203 1 -22 31 62 71 198 22 78 43 150 46 160 3 9
12 17 19 17 8 0 14 6 14 14 0 7 7 19 15 26 8 7 12 16 9 21 -12 20 9 30 28 12
15 -13 19 -14 16 -3 -4 21 43 26 54 6 7 -13 13 -14 30 -5 17 9 32 5 86 -22 76
-39 138 -109 197 -221 36 -69 37 -70 30 -155 -8 -95 -21 -125 -125 -293 -72
-115 -190 -246 -215 -237 -9 4 -13 3 -10 -3 7 -11 -30 -50 -48 -50 -7 0 -18 5
-25 10 -6 6 -10 7 -7 4 2 -4 -5 -19 -15 -35 -18 -24 -26 -27 -61 -24 -23 2
-43 6 -46 9 -7 6 32 43 70 66 44 27 29 25 -40 -6 -32 -14 -66 -23 -75 -21 -9
3 -19 0 -22 -7 -3 -7 -8 -7 -14 3 -8 11 -14 12 -24 4 -7 -5 -21 -13 -30 -16
-14 -5 -17 -1 -16 20 3 29 53 57 85 47 12 -4 14 -3 6 3 -9 6 9 22 62 52 70 40
97 61 77 61 -12 0 -119 -43 -175 -71 -66 -32 -73 -22 -52 80 22 107 15 126 -9
25 -18 -73 -19 -76 -32 -53 -7 13 -14 35 -14 49 0 18 -3 21 -9 11 -7 -10 -13
-11 -30 -2 -23 13 -30 -2 -8 -16 6 -4 12 -15 12 -23 0 -19 -51 -63 -64 -56 -5
4 -15 -2 -21 -11 -8 -12 -13 -14 -16 -6 -3 7 -11 10 -18 7 -7 -3 -21 6 -30 20
-10 16 -26 26 -39 26 -20 0 -27 11 -50 79 -48 142 -60 331 -22 331 17 0 20 16
5 25 -6 4 -8 10 -5 15 3 5 1 11 -5 15 -5 3 -10 22 -10 41 0 28 5 36 25 44 14
5 25 14 25 20 0 8 -6 8 -20 0 -16 -8 -20 -8 -20 4 0 8 14 19 31 25 28 10 30
13 18 28 -12 15 -12 16 4 10 11 -4 17 -2 17 7 0 8 7 16 15 20 8 3 15 11 15 17
0 7 -8 5 -20 -6 -26 -24 -33 -16 -11 12 10 12 26 21 37 20 12 -1 24 10 36 36
10 20 23 37 30 37 6 0 8 3 5 7 -4 3 -2 12 4 20 14 17 -2 17 -21 1 -11 -10 -11
-9 0 6 8 11 14 27 12 36 -2 13 8 20 42 29 25 6 48 16 51 21 5 8 11 8 20 0 8
-6 16 -7 19 -2 3 5 16 7 29 5 20 -4 25 0 30 27 4 17 11 29 17 25 5 -3 10 -1
10 4 0 6 -18 11 -40 11 -23 0 -40 5 -40 11 0 23 80 1 148 -42z m-158 22 c0
-10 -7 -24 -15 -31 -16 -13 -18 -8 -9 28 8 27 24 29 24 3z m-42 -26 c-3 -3
-13 -2 -22 1 -14 5 -15 9 -4 15 13 8 36 -6 26 -16z m-48 1 c0 -2 -7 -6 -15
-10 -8 -3 -15 -1 -15 4 0 6 7 10 15 10 8 0 15 -2 15 -4z m-97 -132 c9 -10 -4
-34 -19 -34 -8 0 -14 9 -14 20 0 19 19 27 33 14z m-30 -61 c8 -7 -11 -33 -23
-33 -5 0 -6 9 -3 20 5 20 15 25 26 13z m-748 -268 c22 -3 78 -17 125 -32 95
-28 134 -59 124 -97 -4 -19 -1 -25 20 -30 14 -3 26 -11 26 -16 0 -6 7 -10 15
-10 11 0 15 -11 15 -36 0 -31 -2 -35 -15 -24 -8 6 -17 22 -21 33 -7 22 -8 21
-14 -3 -6 -23 11 -65 32 -80 12 -9 54 -93 62 -122 4 -17 2 -28 -4 -28 -5 0
-10 8 -10 18 0 14 -2 15 -9 3 -8 -12 -11 -9 -16 12 -4 14 -12 25 -19 24 -6 -1
-12 12 -14 28 -2 23 0 27 7 15 9 -13 11 -13 11 1 0 23 -11 30 -26 18 -8 -6
-11 -23 -8 -42 l4 -32 -16 34 c-9 19 -14 47 -12 63 3 17 -1 29 -9 33 -8 2 -11
10 -8 15 4 6 1 17 -5 25 -6 8 -13 31 -15 52 -4 46 -14 75 -25 68 -5 -3 -3 -26
4 -53 7 -26 11 -52 9 -59 -2 -6 6 -33 18 -59 15 -34 18 -49 10 -52 -9 -3 -8
-11 3 -27 10 -15 12 -26 6 -30 -7 -4 -7 -13 0 -25 5 -10 10 -43 10 -74 0 -44
-4 -55 -17 -59 -13 -3 -10 -5 7 -6 23 -1 23 -2 7 -18 -11 -11 -20 -14 -25 -8
-12 17 -32 25 -304 116 -97 32 -186 59 -197 59 -11 0 -26 6 -33 13 -8 7 -42
12 -87 13 -63 0 -71 -1 -55 -13 10 -7 37 -13 61 -13 48 0 59 -16 16 -23 -22
-3 -20 -5 12 -7 l40 -2 -50 -14 -50 -13 70 3 c39 2 83 8 98 15 36 14 112 -4
250 -61 100 -42 119 -55 97 -68 -10 -6 -10 -9 0 -15 8 -5 16 -1 22 9 7 13 13
14 31 5 12 -7 26 -18 30 -26 5 -7 12 -11 17 -8 5 3 41 -11 81 -30 53 -27 69
-39 60 -48 -6 -6 -11 -19 -11 -28 0 -12 -19 -24 -66 -39 -36 -12 -64 -24 -62
-26 2 -2 37 6 78 16 41 11 78 20 83 20 15 0 6 -17 -15 -28 -22 -11 -22 -11 3
-6 22 5 26 2 25 -16 0 -11 -8 -25 -16 -31 -11 -7 -7 -8 14 -3 27 6 29 5 23
-16 -5 -20 -3 -22 25 -16 17 3 36 6 44 6 7 0 20 8 29 17 10 9 25 17 35 18 10
1 28 12 40 26 14 15 20 18 16 7 -6 -19 17 -31 32 -16 5 5 20 7 32 3 18 -6 19
-9 8 -23 -12 -15 -11 -16 4 -4 15 12 22 12 48 1 16 -8 30 -20 30 -28 0 -11 3
-12 11 -4 12 12 39 7 39 -8 0 -16 -70 -45 -78 -32 -18 27 -52 25 -88 -6 -19
-17 -39 -31 -44 -31 -6 0 -10 -6 -10 -13 0 -14 -35 -47 -49 -47 -5 0 -11 -4
-13 -9 -6 -15 -171 -83 -238 -97 -129 -27 -255 -11 -409 54 -102 43 -274 148
-357 219 -60 52 -79 76 -108 135 -34 73 -66 191 -66 246 0 19 11 39 34 61 33
32 38 33 84 27 38 -5 54 -3 65 9 9 8 22 15 31 15 19 0 30 17 14 22 -7 3 -13
17 -13 33 -2 30 -25 49 -25 20 0 -11 -5 -15 -14 -12 -18 7 -29 -32 -14 -50 15
-18 9 -21 -30 -16 -19 3 -31 10 -29 17 3 6 10 10 16 8 6 -1 11 4 11 12 0 20
108 162 161 212 27 26 64 48 97 59 58 19 208 44 232 40 8 -2 33 -6 55 -10z
m309 -120 c3 -8 1 -15 -3 -15 -5 0 -11 7 -15 15 -3 8 -1 15 3 15 5 0 11 -7 15
-15z m141 -85 c3 -5 1 -10 -4 -10 -6 0 -11 5 -11 10 0 6 2 10 4 10 3 0 8 -4
11 -10z m-49 -22 c-4 7 -2 12 8 12 8 0 18 -4 21 -10 3 -5 0 -10 -7 -10 -7 0
-25 -7 -40 -14 -21 -11 -28 -12 -28 -2 0 23 22 37 39 23 12 -9 13 -9 7 1z m94
-38 c-7 -5 -4 -9 9 -13 24 -6 29 -47 6 -47 -8 0 -15 7 -15 15 0 8 -11 22 -25
31 -23 15 -37 43 -15 29 6 -3 10 4 10 17 l1 23 20 -24 c14 -17 16 -26 9 -31z
m-70 -81 c0 -5 -4 -9 -10 -9 -5 0 -10 7 -10 16 0 8 5 12 10 9 6 -3 10 -10 10
-16z m119 -73 c0 -27 -1 -28 -9 -10 -4 12 -15 24 -24 27 -9 4 -16 11 -16 17 0
6 5 8 10 5 6 -3 10 2 10 12 1 17 2 17 15 -1 8 -11 15 -34 14 -50z m26 -48 c2
-12 6 -34 10 -48 6 -24 6 -24 -9 -6 -9 11 -16 35 -16 55 0 37 9 37 15 -1z m60
-49 c4 -11 4 -23 0 -27 -7 -7 -25 17 -25 36 0 20 18 14 25 -9z m-215 -49 c0
-5 -4 -10 -10 -10 -5 0 -10 5 -10 10 0 6 5 10 10 10 6 0 10 -4 10 -10z m220
-5 c0 -8 -4 -15 -9 -15 -5 0 -11 7 -15 15 -3 9 0 15 9 15 8 0 15 -7 15 -15z
m-103 -27 c-3 -8 -6 -5 -6 6 -1 11 2 17 5 13 3 -3 4 -12 1 -19z m-99 -48 c17
-21 34 -17 25 5 -3 8 0 15 6 15 10 0 15 -14 12 -32 0 -5 3 -8 8 -8 5 0 16 -3
24 -6 9 -3 16 3 20 17 9 33 21 15 22 -31 1 -35 -1 -38 -14 -26 -9 7 -23 13
-31 13 -8 0 -31 7 -50 15 -19 8 -47 20 -62 26 -34 14 -35 21 -5 52 l22 25 3
-23 c2 -13 11 -32 20 -42z m524 28 c-8 -8 -9 -4 -5 13 4 13 8 18 11 10 2 -7
-1 -18 -6 -23z m-292 -4 c0 -8 -7 -14 -15 -14 -8 0 -15 2 -15 4 0 2 -3 11 -6
19 -4 12 0 14 15 10 12 -3 21 -12 21 -19z m490 -48 c0 -8 -6 -17 -12 -19 -7
-3 -4 -6 8 -6 11 -1 25 4 32 11 17 17 15 -4 -4 -30 -18 -26 -34 -29 -34 -4 -1
12 -5 9 -16 -10 -8 -16 -19 -28 -25 -28 -16 0 -22 29 -10 44 8 10 9 16 1 21
-6 3 -8 11 -4 16 3 5 9 7 14 4 5 -3 11 -1 15 5 9 15 35 12 35 -4z m-481 -22
c21 14 24 -25 3 -46 -24 -25 -46 -15 -38 17 4 14 1 25 -6 27 -6 2 -8 10 -4 17
6 9 11 8 20 -5 7 -9 18 -14 25 -10z m-77 -16 c-7 -7 -12 -8 -12 -2 0 14 12 26
19 19 2 -3 -1 -11 -7 -17z m472 -21 c5 -38 1 -43 -22 -29 -13 9 -12 38 2 60
11 18 15 12 20 -31z m861 7 c70 -33 191 -132 226 -185 42 -63 70 -144 76 -219
5 -55 1 -77 -22 -140 -50 -139 -77 -235 -82 -300 -9 -93 -40 -157 -110 -219
-32 -29 -76 -63 -98 -76 -57 -34 -159 -58 -216 -52 -96 12 -353 161 -459 267
-70 70 -130 159 -130 192 0 19 2 20 10 8 5 -8 10 -11 10 -6 0 5 7 3 15 -4 8
-6 13 -21 12 -32 -1 -12 3 -23 9 -25 8 -3 9 9 3 39 -4 24 -8 54 -9 67 0 24 0
24 18 5 11 -11 19 -34 19 -59 1 -72 2 -75 26 -75 17 0 19 2 7 10 -8 5 -11 12
-7 16 3 4 13 1 22 -6 11 -9 15 -9 15 -1 0 7 5 9 10 6 6 -3 10 5 10 19 0 39 30
22 31 -18 1 -32 3 -29 13 17 4 15 13 27 21 27 19 0 41 40 23 40 -7 1 -3 6 10
13 12 7 20 16 17 19 -3 3 1 8 9 11 8 3 17 -1 20 -9 4 -9 -3 -18 -17 -23 l-22
-9 24 -9 c19 -8 28 -6 43 9 10 10 18 22 18 26 0 4 13 19 30 32 16 14 29 33 30
44 0 15 3 16 15 6 11 -9 18 -10 29 -1 7 6 21 9 30 5 11 -4 16 -1 16 11 0 11 5
15 15 11 8 -3 15 0 15 5 0 6 11 9 24 7 19 -4 22 -1 18 14 -4 18 -1 19 32 14
20 -3 54 -15 76 -26 41 -21 168 -70 179 -69 3 0 -43 25 -103 55 -70 36 -110
62 -113 75 -3 10 -13 19 -22 19 -13 0 -14 2 -2 9 8 5 20 7 28 4 11 -5 15 2 12
23 0 3 8 12 18 19 14 11 15 16 6 26 -16 16 -92 -7 -101 -30 -14 -40 -22 -40
-99 2 -42 22 -110 55 -150 73 l-74 32 27 21 c15 11 31 21 36 21 5 0 6 5 3 10
-3 6 -2 10 3 10 5 0 14 10 21 23 7 13 27 27 44 33 18 5 32 15 32 22 0 8 14 25
30 38 17 13 27 24 24 24 -13 0 -98 -41 -104 -49 -8 -14 -45 -1 -45 16 0 10 6
12 21 8 15 -5 20 -3 17 6 -2 7 -15 16 -29 19 -20 5 -14 9 31 22 109 31 160 40
173 30 7 -5 21 -6 32 -1 19 7 19 8 1 8 -33 2 -2 24 69 51 57 21 63 26 43 32
-13 4 -3 5 22 2 25 -3 68 -16 95 -30z m-574 -143 c-13 -13 -21 -16 -24 -8 -2
7 5 17 17 24 29 16 32 9 7 -16z m-676 -45 c18 -13 17 -14 -13 -30 -39 -20 -39
-20 -45 4 -3 12 1 24 11 30 22 13 25 12 47 -4z m-75 -41 c0 -8 -7 -15 -15 -15
-16 0 -20 12 -8 23 11 12 23 8 23 -8z m854 -6 c-3 -5 -10 -7 -15 -3 -5 3 -7
10 -3 15 3 5 10 7 15 3 5 -3 7 -10 3 -15z m-750 -17 c-12 -9 -31 -24 -44 -32
-40 -27 -60 -47 -60 -60 0 -6 -6 -10 -12 -7 -7 2 -28 -4 -45 -15 -18 -11 -33
-15 -33 -9 0 20 -17 11 -28 -14 -13 -28 -36 -32 -58 -11 -25 25 40 70 191 133
90 37 123 42 89 15z m246 -12 c0 -5 -4 -10 -10 -10 -5 0 -10 5 -10 10 0 6 5
10 10 10 6 0 10 -4 10 -10z m240 -29 c0 -17 -18 -21 -24 -6 -3 9 0 15 9 15 8
0 15 -4 15 -9z m-331 -48 c8 -16 17 -36 22 -45 11 -22 11 -28 1 -28 -7 0 -52
82 -52 95 0 15 19 1 29 -22z m141 7 c0 -5 -7 -10 -15 -10 -8 0 -15 5 -15 10 0
6 7 10 15 10 8 0 15 -4 15 -10z m383 -17 c90 -31 288 -133 294 -150 10 -25
-17 -44 -53 -37 -26 5 -34 2 -44 -16 -8 -15 -15 -18 -24 -11 -8 7 -28 6 -65
-4 -45 -12 -51 -12 -40 1 8 10 8 18 1 27 -6 7 -12 33 -15 57 -2 33 -4 25 -5
-27 -2 -55 -6 -73 -16 -73 -7 0 -19 -7 -26 -15 -18 -21 -40 -19 -40 4 0 11 -4
22 -9 25 -4 3 -7 43 -5 88 l3 83 -13 -52 c-7 -28 -11 -64 -9 -80 6 -40 -18
-60 -52 -45 -25 11 -34 32 -15 32 6 0 10 9 10 20 0 11 7 23 15 26 8 4 12 10 9
15 -3 5 -9 7 -14 4 -16 -10 -20 13 -5 25 20 16 19 30 -1 30 -13 0 -15 8 -12
35 4 37 -9 35 -15 -2 -3 -24 -17 -44 -17 -25 0 7 -6 12 -14 12 -9 0 -13 11
-11 38 2 20 4 37 4 37 1 0 26 1 57 2 38 1 78 -6 127 -24z m-554 -61 c16 -31
41 -88 55 -127 15 -38 31 -78 37 -87 13 -25 12 -28 -12 -28 -11 0 -30 -5 -41
-11 -19 -10 -17 -13 30 -40 43 -24 50 -32 48 -58 -1 -16 -9 -37 -18 -48 -15
-16 -15 -22 -2 -53 8 -19 20 -38 27 -42 9 -6 7 -12 -5 -22 -10 -7 -18 -18 -18
-24 0 -5 -7 -13 -16 -16 -8 -3 -13 -10 -9 -15 8 -14 35 -2 35 15 0 8 5 14 10
14 6 0 0 -18 -12 -39 -12 -22 -26 -37 -30 -35 -5 3 -8 0 -8 -5 0 -6 5 -11 11
-11 8 0 8 -5 -1 -15 -7 -8 -10 -15 -6 -15 11 0 -34 -81 -75 -135 -45 -59 -184
-189 -282 -263 -81 -62 -136 -91 -231 -122 -90 -30 -119 -21 -209 65 l-67 65
30 43 c17 23 60 83 95 132 92 127 237 342 259 384 10 20 24 40 31 46 14 12
109 154 196 293 35 57 72 116 81 130 10 15 25 41 35 59 9 18 20 30 25 27 5 -3
21 -31 37 -62z m-429 18 c0 -5 -7 -10 -16 -10 -8 0 -12 5 -9 10 3 6 10 10 16
10 5 0 9 -4 9 -10z m-26 -16 c23 -9 20 -21 -6 -28 -13 -3 -32 -19 -42 -35 -12
-17 -25 -27 -34 -23 -8 3 -19 -2 -24 -11 -12 -23 -28 -21 -28 3 0 12 21 34 58
59 67 47 57 42 76 35z m794 -29 c-2 -19 -1 -35 3 -35 7 0 12 -27 24 -126 6
-45 4 -51 -12 -51 -28 0 -39 24 -38 78 1 27 0 49 -2 49 -2 0 -11 -4 -21 -9 -9
-4 -32 -13 -49 -19 -27 -8 -33 -8 -33 4 0 8 3 14 8 14 4 0 18 16 31 35 27 39
51 46 51 13 0 -27 14 -14 16 15 2 27 15 67 21 67 3 0 3 -16 1 -35z m-713 5 c3
-5 1 -10 -4 -10 -6 0 -11 5 -11 10 0 6 2 10 4 10 3 0 8 -4 11 -10z m765 -31
c-7 -11 -14 -19 -16 -16 -7 7 7 37 17 37 6 0 5 -9 -1 -21z m-814 -5 c7 18 34
22 34 5 0 -8 5 -8 15 1 12 10 15 10 15 -3 0 -9 -10 -23 -22 -31 l-22 -15 25
-10 24 -10 -22 -7 c-12 -3 -29 -17 -38 -31 -16 -23 -16 -25 2 -21 10 2 18 11
17 19 -1 9 13 19 32 26 22 6 34 6 34 0 0 -5 5 -5 13 1 19 16 102 28 93 14 -4
-7 -2 -12 3 -12 6 0 11 -4 11 -10 0 -5 -3 -9 -7 -9 -19 3 -33 -2 -33 -12 0 -5
5 -7 10 -4 18 11 11 -13 -20 -65 -16 -28 -30 -53 -30 -55 0 -7 -73 -130 -84
-141 -6 -6 -49 -70 -96 -142 -47 -73 -89 -131 -95 -130 -14 2 -68 -13 -80 -22
-5 -4 -30 -13 -55 -18 -72 -18 -139 -37 -145 -43 -9 -9 107 9 160 26 61 18 65
18 65 1 0 -8 -26 -20 -67 -31 -57 -16 -63 -19 -44 -27 15 -5 28 -4 36 2 21 17
77 31 68 17 -15 -26 -162 -214 -177 -226 -14 -12 -30 -10 -104 14 -104 33
-150 55 -178 87 -27 28 -68 110 -82 160 -12 44 1 113 26 141 9 11 16 21 15 23
-8 12 -1 22 15 20 12 -1 17 7 18 25 2 41 114 188 114 150 0 -16 21 -12 100 17
41 16 51 22 37 27 -16 7 -16 9 4 26 12 10 29 21 39 24 10 3 17 13 16 23 -1 11
6 16 19 15 12 -1 29 11 45 32 14 19 31 35 38 35 7 0 15 7 19 16 3 8 16 19 28
24 12 4 22 15 22 23 0 13 -5 13 -34 1 -41 -17 -42 -7 -2 24 24 20 32 22 44 12
8 -7 15 -19 15 -27 0 -18 71 -7 83 13 4 8 15 14 23 14 11 0 13 6 9 20 -10 31
4 44 26 24 17 -15 19 -15 25 0z m110 1 c-22 -17 -36 -19 -36 -7 0 14 12 22 34
22 21 -1 21 -1 2 -15z m712 -45 c-7 -11 -16 -16 -21 -11 -12 12 0 31 19 31 12
0 12 -3 2 -20z m-1122 -85 c-21 -19 -42 -32 -47 -30 -4 3 -10 1 -14 -5 -3 -5
-16 -15 -28 -21 -20 -10 -21 -10 -6 5 21 23 112 85 124 85 6 1 -8 -15 -29 -34z
m1140 13 c4 -6 0 -16 -8 -22 -8 -6 -13 -17 -11 -23 3 -7 1 -13 -4 -13 -10 0
-16 48 -7 61 7 12 21 11 30 -3z m-176 -2 c0 -3 -4 -8 -10 -11 -5 -3 -10 -1
-10 4 0 6 5 11 10 11 6 0 10 -2 10 -4z m232 -58 c-7 -7 -12 -8 -12 -2 0 14 12
26 19 19 2 -3 -1 -11 -7 -17z m100 0 c-7 -7 -12 -8 -12 -2 0 14 12 26 19 19 2
-3 -1 -11 -7 -17z m-65 -20 c-3 -8 -6 -5 -6 6 -1 11 2 17 5 13 3 -3 4 -12 1
-19z m33 1 c0 -5 -4 -9 -10 -9 -5 0 -10 7 -10 16 0 8 5 12 10 9 6 -3 10 -10
10 -16z m90 17 c0 -3 -4 -8 -10 -11 -5 -3 -10 -1 -10 4 0 6 5 11 10 11 6 0 10
-2 10 -4z m-1484 -48 c-9 -5 -25 -27 -37 -50 -19 -36 -22 -39 -36 -25 -19 18
-9 38 15 30 9 -3 14 -2 9 2 -4 5 7 24 25 42 19 20 34 29 37 22 2 -6 -4 -16
-13 -21z m1164 2 c0 -5 -5 -10 -11 -10 -5 0 -7 5 -4 10 3 6 8 10 11 10 2 0 4
-4 4 -10z m-1260 -90 c0 -5 -4 -10 -10 -10 -5 0 -10 5 -10 10 0 6 5 10 10 10
6 0 10 -4 10 -10z m1080 -30 c0 -5 -5 -10 -11 -10 -5 0 -7 5 -4 10 3 6 8 10
11 10 2 0 4 -4 4 -10z m155 -953 c-14 -78 -39 -178 -54 -222 -36 -102 -113
-285 -120 -285 -3 0 -16 17 -27 37 l-22 38 65 129 c82 163 116 253 151 391 37
148 41 96 7 -88z m-1033 -255 c126 -57 204 -220 245 -517 21 -153 24 -769 5
-940 -29 -251 -89 -436 -170 -526 -57 -63 -109 -89 -182 -89 -77 0 -120 14
-168 55 -115 99 -178 296 -203 631 -13 182 -6 742 11 869 43 315 141 498 288
535 50 12 123 5 174 -18z"/>
<path d="M17581 8397 c-16 -16 -14 -24 8 -30 13 -3 21 1 24 14 6 21 -16 32
-32 16z"/>
<path d="M17846 8318 c4 -13 15 -54 25 -93 10 -38 18 -59 18 -46 1 26 -37 161
-45 161 -3 0 -2 -10 2 -22z"/>
<path d="M17925 8300 c-3 -5 -1 -10 4 -10 6 0 11 5 11 10 0 6 -2 10 -4 10 -3
0 -8 -4 -11 -10z"/>
<path d="M17811 8225 c0 -5 6 -21 14 -35 8 -14 14 -20 14 -15 0 6 -6 21 -14
35 -8 14 -14 21 -14 15z"/>
<path d="M17760 8171 c0 -6 4 -13 10 -16 6 -3 7 1 4 9 -7 18 -14 21 -14 7z"/>
<path d="M17814 8067 c3 -10 6 -25 6 -33 0 -9 5 -12 10 -9 14 9 13 18 -6 41
-14 17 -15 17 -10 1z"/>
<path d="M17775 8030 c-7 -12 2 -30 16 -30 12 0 12 27 0 35 -5 3 -12 1 -16 -5z"/>
<path d="M17612 7958 c2 -5 8 -9 13 -9 5 0 11 4 13 9 1 5 -4 9 -13 9 -9 0 -14
-4 -13 -9z"/>
<path d="M17069 8309 c-7 -5 -12 -9 -9 -10 32 -5 60 -7 60 -4 0 12 -38 23 -51
14z"/>
<path d="M17060 8214 c0 -17 17 -36 24 -26 3 5 -1 15 -9 22 -8 7 -15 9 -15 4z"/>
<path d="M16977 8040 c3 -11 7 -20 9 -20 2 0 4 9 4 20 0 11 -4 20 -9 20 -5 0
-7 -9 -4 -20z"/>
<path d="M17085 8041 c-3 -5 -1 -12 5 -16 5 -3 10 1 10 9 0 18 -6 21 -15 7z"/>
<path d="M17021 7975 c1 -19 18 -51 18 -35 0 8 -4 22 -9 30 -5 8 -9 11 -9 5z"/>
<path d="M17062 7907 c-27 -28 -28 -37 -4 -37 10 0 24 -6 30 -12 10 -10 15
-10 22 2 13 20 12 21 -8 48 l-18 23 -22 -24z"/>
<path d="M16740 7861 c-84 -23 -105 -32 -55 -24 46 7 158 41 135 41 -8 0 -44
-8 -80 -17z"/>
<path d="M16893 7845 c-9 -24 1 -27 15 -5 8 13 8 20 2 20 -6 0 -13 -7 -17 -15z"/>
<path d="M16618 7823 c7 -3 16 -2 19 1 4 3 -2 6 -13 5 -11 0 -14 -3 -6 -6z"/>
<path d="M16775 7820 c-3 -5 1 -10 9 -10 8 0 18 5 21 10 3 6 -1 10 -9 10 -8 0
-18 -4 -21 -10z"/>
<path d="M16578 7813 c7 -3 16 -2 19 1 4 3 -2 6 -13 5 -11 0 -14 -3 -6 -6z"/>
<path d="M17008 7743 c7 -3 16 -2 19 1 4 3 -2 6 -13 5 -11 0 -14 -3 -6 -6z"/>
<path d="M17510 7540 c-9 -6 -10 -10 -3 -10 6 0 15 5 18 10 8 12 4 12 -15 0z"/>
<path d="M17475 7520 c3 -5 8 -10 11 -10 2 0 4 5 4 10 0 6 -5 10 -11 10 -5 0
-7 -4 -4 -10z"/>
<path d="M18728 7663 c7 -3 16 -2 19 1 4 3 -2 6 -13 5 -11 0 -14 -3 -6 -6z"/>
<path d="M18386 7415 c-4 -11 1 -15 17 -14 12 0 16 3 9 6 -6 2 -10 9 -6 14 3
5 1 9 -4 9 -6 0 -12 -7 -16 -15z"/>
<path d="M18535 7342 c-5 -4 -17 -16 -25 -26 -14 -18 -14 -19 5 -8 39 21 61
41 45 42 -8 0 -19 -4 -25 -8z"/>
<path d="M18553 7294 c-18 -15 -33 -31 -33 -36 0 -8 45 -1 65 11 10 6 16 7 35
10 6 0 10 6 10 12 0 6 -8 8 -19 4 -13 -4 -20 -1 -23 10 -2 13 -9 11 -35 -11z"/>
<path d="M18592 7059 c-7 -11 -17 -17 -22 -14 -6 4 -8 11 -5 16 4 5 1 9 -4 9
-6 0 -11 -5 -11 -12 0 -6 -8 -21 -17 -32 -10 -12 -11 -15 -3 -8 8 6 23 12 35
12 18 0 52 36 43 46 -2 1 -9 -6 -16 -17z"/>
<path d="M18680 7010 c0 -5 7 -10 16 -10 8 0 12 5 9 10 -3 6 -10 10 -16 10 -5
0 -9 -4 -9 -10z"/>
<path d="M18580 6971 c0 -5 9 -11 21 -14 16 -4 18 -3 8 9 -13 16 -29 19 -29 5z"/>
<path d="M18497 6953 c-13 -12 -7 -32 7 -27 19 7 29 34 12 34 -7 0 -16 -3 -19
-7z"/>
<path d="M18370 6920 c0 -5 7 -7 15 -4 8 4 15 8 15 10 0 2 -7 4 -15 4 -8 0
-15 -4 -15 -10z"/>
<path d="M18360 6830 c0 -5 7 -7 15 -4 8 4 15 8 15 10 0 2 -7 4 -15 4 -8 0
-15 -4 -15 -10z"/>
<path d="M18216 6811 c-7 -10 9 -51 20 -51 5 0 -3 50 -10 57 -2 2 -7 0 -10 -6z"/>
<path d="M18147 6779 c-7 -28 -6 -31 12 -20 9 6 10 14 4 26 -9 15 -11 15 -16
-6z"/>
<path d="M17340 7279 c0 -5 5 -7 10 -4 6 3 10 8 10 11 0 2 -4 4 -10 4 -5 0
-10 -5 -10 -11z"/>
<path d="M18271 7243 c-1 -6 -4 -20 -7 -30 -5 -17 -5 -17 6 0 6 10 9 23 6 30
-3 9 -5 9 -5 0z"/>
<path d="M18180 7121 c0 -5 5 -13 10 -16 6 -3 10 -2 10 4 0 5 -4 13 -10 16 -5
3 -10 2 -10 -4z"/>
<path d="M17763 6565 c0 -9 4 -14 9 -13 5 2 10 8 10 13 0 5 -5 11 -10 13 -5 1
-9 -4 -9 -13z"/>
<path d="M17707 6554 c-5 -10 9 -54 17 -54 3 0 3 7 0 15 -4 11 1 15 17 16 21
1 21 2 4 6 -11 3 -23 10 -26 15 -4 6 -9 6 -12 2z"/>
<path d="M17195 6500 c-3 -5 3 -10 14 -10 11 0 23 5 26 10 3 6 -3 10 -14 10
-11 0 -23 -4 -26 -10z"/>
<path d="M17981 7146 c-9 -11 -6 -12 14 -8 14 2 22 8 19 13 -8 13 -20 11 -33
-5z"/>
<path d="M17383 7063 c-7 -3 -13 -11 -13 -20 0 -12 2 -12 16 2 18 17 16 25 -3
18z"/>
<path d="M16714 6803 c-13 -14 -24 -31 -24 -36 0 -6 -8 -20 -17 -31 -10 -12
-11 -15 -3 -8 8 6 26 12 41 12 15 0 31 5 34 10 3 6 1 10 -4 10 -6 0 -11 4 -11
9 0 5 29 13 65 16 57 6 63 9 48 20 -10 7 -38 15 -62 18 -38 5 -47 2 -67 -20z"/>
<path d="M17170 6704 c-10 -12 -8 -14 15 -14 21 0 26 -4 21 -16 -5 -14 -4 -15
9 -4 21 17 19 25 -9 38 -19 9 -27 8 -36 -4z"/>
<path d="M13774 7175 c-97 -18 -245 -69 -324 -113 -75 -40 -165 -110 -229
-176 l-44 -45 28 -41 c15 -22 29 -40 31 -40 2 0 32 21 66 46 161 118 337 163
516 130 353 -63 642 -436 783 -1011 37 -150 37 -152 0 -126 -106 76 -228 111
-387 111 -518 1 -921 -361 -1045 -938 -26 -125 -37 -449 -20 -601 42 -360 202
-662 449 -848 317 -238 829 -267 1186 -65 92 51 149 96 227 180 164 175 260
371 334 677 52 216 60 313 59 690 0 305 -3 372 -23 520 -27 201 -60 364 -107
529 -190 660 -594 1056 -1146 1126 -108 13 -265 11 -354 -5z m605 -1541 c42
-12 69 -31 136 -95 94 -90 96 -95 121 -284 21 -155 30 -703 15 -903 -22 -277
-66 -476 -134 -605 -36 -69 -124 -152 -175 -167 -191 -53 -319 88 -386 422
-37 183 -49 334 -49 623 0 363 26 591 88 769 71 206 209 292 384 240z"/>
<path d="M3771 7030 c-144 -20 -335 -95 -462 -181 -182 -122 -321 -326 -374
-549 -22 -90 -30 -279 -16 -368 6 -40 24 -113 40 -163 16 -49 27 -89 26 -89
-2 0 -36 13 -77 29 -40 16 -95 35 -123 42 -27 6 -56 17 -64 23 -9 7 -88 12
-213 14 -109 2 -198 7 -198 10 0 4 16 18 36 31 79 54 200 216 261 350 67 147
110 370 97 502 -6 63 -11 74 -66 149 -32 44 -60 80 -61 81 -1 0 -47 6 -102 13
-77 10 -119 22 -185 52 -85 39 -85 39 -210 38 -208 -1 -321 -44 -450 -174 -94
-95 -180 -240 -245 -415 -6 -17 -8 -18 -16 -5 -5 8 -26 43 -47 78 -129 216
-303 333 -495 332 -92 -1 -133 -13 -205 -59 -57 -36 -131 -139 -159 -220 -13
-38 -28 -62 -53 -80 -66 -49 -149 -139 -177 -192 -25 -48 -28 -64 -28 -144 0
-49 7 -112 14 -140 20 -70 74 -177 113 -221 57 -65 180 -156 263 -195 72 -33
279 -89 332 -89 48 0 26 -16 -60 -44 -126 -42 -198 -87 -264 -166 -138 -165
-182 -354 -127 -542 38 -125 92 -197 199 -266 78 -50 200 -149 260 -212 55
-57 102 -79 198 -92 76 -10 88 -9 149 11 122 41 254 145 331 262 52 78 123
244 137 320 20 107 24 110 45 33 42 -156 109 -287 234 -456 189 -253 394 -424
691 -573 58 -29 70 -39 64 -53 -45 -102 -56 -159 -51 -257 5 -112 32 -197 95
-294 118 -187 375 -335 666 -387 331 -58 717 -2 1004 146 400 205 615 554 615
995 0 196 -32 331 -123 520 -101 210 -232 384 -523 694 -106 112 -243 258
-306 325 -254 271 -391 470 -451 661 -30 96 -38 274 -16 368 45 192 173 320
336 334 115 11 204 -29 265 -119 41 -61 65 -137 95 -294 48 -261 101 -332 241
-322 143 11 241 114 271 285 33 198 -80 406 -286 522 -94 54 -239 104 -361
127 -104 19 -389 27 -484 14z m-1480 -82 l127 -43 -24 -28 c-28 -33 -36 -34
-29 -4 4 15 0 26 -15 35 -12 7 -20 8 -20 2 0 -6 -10 -8 -25 -4 -26 6 -36 -10
-11 -19 8 -3 12 -16 11 -31 -3 -25 -2 -26 43 -20 34 4 56 14 77 35 43 41 96
41 135 -1 33 -36 83 -159 99 -243 13 -73 -3 -167 -52 -293 -132 -342 -288
-513 -524 -575 -79 -21 -218 -33 -238 -21 -5 4 -32 8 -58 9 -37 2 -55 -2 -74
-17 -14 -11 -22 -20 -18 -20 4 0 2 -7 -5 -15 -7 -8 -28 -15 -47 -15 -31 0 -33
2 -23 21 8 13 17 18 28 14 13 -5 14 -3 5 6 -17 18 39 115 65 111 11 -2 22 4
25 13 4 8 1 15 -5 15 -9 0 -9 3 -1 11 8 8 17 7 32 -3 18 -11 23 -11 30 1 6 8
18 12 31 8 19 -5 92 16 110 30 3 3 -4 9 -14 15 -19 11 -19 11 -1 24 17 13 17
14 1 14 -9 0 -15 4 -12 9 3 5 -2 12 -12 16 -14 6 -10 10 18 21 l35 14 -32 -6
c-59 -10 -35 13 42 41 87 32 93 44 10 20 -41 -12 -60 -14 -68 -6 -6 6 -19 11
-30 11 -16 0 -14 9 20 71 21 39 44 74 51 76 6 3 12 15 12 28 0 25 24 50 38 41
6 -3 15 1 21 8 10 12 8 15 -9 18 -19 3 -16 10 35 93 79 129 142 201 184 210
32 6 141 68 141 80 0 3 -18 -4 -41 -15 -51 -26 -63 -19 -18 11 19 11 26 18 17
15 -10 -3 -26 -9 -35 -12 -10 -3 -4 7 13 23 18 15 38 39 45 53 l12 25 -34 -28
c-19 -15 -46 -35 -60 -44 -14 -9 -30 -24 -35 -34 -5 -9 -44 -61 -87 -115 -43
-55 -103 -137 -135 -184 -31 -47 -65 -91 -75 -98 -9 -7 -15 -18 -12 -23 4 -5
-1 -12 -10 -15 -8 -4 -14 -12 -13 -19 3 -14 1 -15 -29 -15 -16 1 -16 2 1 15
19 15 19 15 -2 15 -12 0 -22 4 -22 8 0 5 -9 18 -19 29 -11 12 -24 36 -29 54
-5 19 -14 33 -21 31 -6 -1 -11 9 -11 22 0 13 -5 26 -11 28 -6 2 -15 25 -20 51
-5 27 -15 55 -24 63 -8 8 -20 33 -26 54 -13 42 -29 53 -29 20 0 -11 4 -20 9
-20 4 0 14 -21 21 -47 7 -27 17 -53 21 -59 5 -6 6 -14 2 -17 -3 -4 1 -15 9
-24 19 -23 42 -82 35 -90 -4 -3 -12 6 -18 21 -14 29 -39 35 -39 9 0 -13 2 -15
8 -5 6 9 12 5 20 -13 15 -32 15 -38 1 -29 -8 4 -9 0 -4 -15 7 -23 -2 -61 -14
-61 -15 0 -33 85 -33 155 1 59 -3 73 -18 83 -18 11 -19 9 -14 -17 8 -37 -10
-48 -24 -15 -9 19 -8 34 3 67 19 53 19 57 -1 57 -30 0 -9 65 43 132 87 114
124 148 208 190 181 92 216 94 416 26z m-1481 -217 c0 -5 -7 -11 -15 -15 -15
-5 -20 5 -8 17 9 10 23 9 23 -2z m-46 -25 c-3 -7 -17 -19 -31 -27 -22 -12 -27
-11 -39 6 -11 14 -11 21 -3 24 6 2 15 -2 19 -9 4 -7 13 -9 19 -6 6 4 9 11 7
15 -3 4 4 7 14 8 12 1 17 -3 14 -11z m-94 -13 c0 -4 -12 -17 -27 -29 -16 -12
-25 -25 -22 -29 4 -3 14 2 24 11 16 16 16 16 13 -1 -2 -9 5 -22 15 -29 15 -9
21 -7 33 8 8 11 14 16 14 10 0 -5 7 -1 15 10 7 10 18 15 24 12 6 -4 29 2 51
13 38 18 41 18 53 2 6 -10 19 -20 27 -24 9 -3 6 -6 -10 -6 l-25 -1 29 -15 c15
-8 34 -15 41 -15 7 0 18 -7 25 -15 14 -17 47 -20 52 -5 2 7 17 8 38 3 l35 -7
-30 -7 c-23 -5 -25 -7 -8 -8 12 0 25 -6 29 -12 4 -8 9 -7 15 2 7 11 9 10 9 -4
0 -15 6 -17 34 -12 20 4 36 2 40 -4 5 -7 -3 -11 -19 -11 -15 0 -24 -4 -20 -10
3 -5 19 -9 36 -7 23 2 33 -4 50 -31 l21 -33 -31 6 c-23 4 -31 2 -31 -9 0 -21
19 -31 33 -17 17 17 27 13 27 -9 0 -14 6 -19 21 -17 42 4 147 -180 180 -317
11 -42 10 -50 -4 -58 -10 -5 -17 -22 -17 -39 0 -33 -33 -78 -45 -59 -5 8 -10
8 -20 0 -17 -14 -65 -10 -83 7 -8 8 -11 22 -6 35 6 21 4 20 -20 -5 -21 -23
-24 -32 -15 -43 6 -8 8 -14 5 -14 -4 0 -2 -9 4 -21 10 -18 10 -19 -8 -10 -10
5 -25 17 -32 26 -7 9 -32 30 -54 47 -28 21 -18 7 33 -44 40 -42 72 -81 69 -88
-2 -7 -54 -23 -118 -36 -201 -42 -149 -57 78 -22 67 10 74 9 87 -8 13 -17 11
-20 -21 -28 -18 -5 -34 -16 -34 -24 0 -8 -6 -12 -15 -8 -8 3 -15 1 -15 -4 0
-5 -34 -16 -75 -25 -41 -9 -75 -19 -75 -22 0 -3 14 -3 31 1 17 3 49 3 72 -1
l41 -6 -39 -32 c-34 -29 -42 -32 -67 -23 -19 7 -32 7 -41 -1 -20 -16 -151 -6
-244 18 -91 23 -339 131 -371 161 -11 10 -41 46 -67 79 -43 57 -47 66 -57 150
-8 66 -8 108 0 156 17 102 68 191 105 181 15 -4 18 0 14 14 -6 25 30 60 43 41
6 -10 9 -9 15 8 3 11 13 21 22 21 9 0 13 -6 9 -15 -4 -11 1 -15 19 -15 14 0
25 -5 25 -11 0 -6 8 -8 18 -5 12 4 57 -26 147 -98 122 -98 185 -143 185 -132
0 2 -72 62 -160 132 -100 79 -159 133 -158 143 2 9 -6 17 -17 19 -27 6 -36 22
-24 43 6 11 5 20 0 24 -13 7 39 129 73 172 25 31 46 43 46 26z m306 -24 c3 -6
2 -15 -3 -20 -14 -14 -43 0 -36 17 6 17 29 19 39 3z m50 -34 c14 -13 13 -15
-5 -15 -21 0 -35 13 -24 24 9 9 13 8 29 -9z m564 -61 c0 -8 -4 -12 -10 -9 -5
3 -10 10 -10 16 0 5 5 9 10 9 6 0 10 -7 10 -16z m30 -144 c0 -4 -11 -10 -25
-12 -19 -4 -25 -1 -25 12 0 13 6 16 25 12 14 -2 25 -8 25 -12z m-60 -10 c0 -5
-4 -10 -10 -10 -5 0 -10 5 -10 10 0 6 5 10 10 10 6 0 10 -4 10 -10z m-16 -47
c3 -7 1 -13 -3 -13 -5 0 -8 -16 -7 -35 1 -21 -4 -37 -12 -40 -17 -6 -28 23
-13 38 13 13 15 31 2 23 -9 -6 -22 29 -14 38 10 9 43 2 47 -11z m86 -49 c0 -8
-4 -12 -10 -9 -5 3 -10 10 -10 16 0 5 5 9 10 9 6 0 10 -7 10 -16z m-66 -91
c-3 9 -1 17 5 17 6 0 10 -17 8 -40 -1 -22 -5 -40 -10 -40 -4 0 2 -18 13 -40
22 -43 25 -60 10 -60 -5 0 -13 12 -16 28 -4 15 -11 32 -16 39 -5 7 -7 21 -3
32 3 10 1 22 -5 26 -5 3 -10 18 -10 33 0 25 1 25 15 6 13 -16 14 -16 9 -1z
m191 -83 c3 -5 1 -10 -4 -10 -6 0 -11 5 -11 10 0 6 2 10 4 10 3 0 8 -4 11 -10z
m53 -26 c12 -4 22 -11 22 -16 0 -15 -80 -128 -90 -128 -6 0 -10 -9 -10 -19 0
-11 -4 -23 -10 -26 -5 -3 -7 0 -5 8 3 7 -3 22 -15 32 -29 26 -27 50 2 34 16
-9 23 -9 26 0 2 6 11 11 20 11 11 0 13 3 6 8 -14 9 -26 42 -15 42 5 0 11 -7
15 -15 3 -8 9 -15 14 -15 12 0 14 58 2 65 -14 9 -13 25 3 25 6 0 22 -3 35 -6z
m-248 -58 c0 -8 7 -19 15 -26 8 -7 14 -18 14 -24 -1 -6 1 -19 6 -29 8 -20 -10
-46 -22 -32 -5 4 -2 10 5 12 10 4 10 10 -3 29 -9 14 -13 28 -10 33 2 5 -2 11
-10 15 -8 3 -15 15 -15 26 0 12 5 18 10 15 6 -3 10 -12 10 -19z m115 -16 c3
-5 1 -10 -4 -10 -6 0 -11 5 -11 10 0 6 2 10 4 10 3 0 8 -4 11 -10z m5 -120 c0
-5 -2 -10 -4 -10 -3 0 -8 5 -11 10 -3 6 -1 10 4 10 6 0 11 -4 11 -10z m-40
-10 c0 -5 -4 -10 -10 -10 -5 0 -10 5 -10 10 0 6 5 10 10 10 6 0 10 -4 10 -10z
m10 -30 c21 -11 20 -46 -1 -44 -52 5 -80 37 -41 47 9 3 18 5 20 6 2 0 12 -3
22 -9z m-320 -90 c8 -5 11 -10 5 -10 -5 0 -17 5 -25 10 -8 5 -10 10 -5 10 6 0
17 -5 25 -10z m454 -75 c-4 -9 0 -15 7 -16 21 -1 -23 -17 -48 -18 -21 -1 -25
12 -10 37 12 18 58 16 51 -3z m45 -11 c-14 -18 -24 -11 -15 11 3 9 11 13 16
10 8 -5 7 -11 -1 -21z m429 -6 c20 -20 14 -31 -14 -25 -16 3 -28 0 -31 -9 -4
-11 -10 -11 -37 0 -19 8 -40 10 -53 5 -12 -4 -25 -4 -28 0 -5 9 11 25 35 34
28 10 116 7 128 -5z m97 3 c16 -7 13 -9 -19 -15 -36 -7 -38 -9 -22 -24 14 -15
18 -15 26 -3 6 11 12 12 22 3 8 -6 28 -11 44 -10 29 1 54 -4 88 -18 13 -5 17
-4 12 4 -3 6 -1 14 5 18 6 4 16 0 21 -9 7 -13 21 -16 59 -13 44 3 48 2 37 -12
-11 -13 -10 -15 12 -9 14 3 43 9 65 13 46 8 68 22 58 37 -8 14 54 1 122 -25
30 -11 53 -26 52 -32 -1 -6 12 -11 32 -11 19 0 36 -6 38 -12 3 -7 11 -13 19
-13 7 0 21 -15 30 -32 9 -18 32 -56 51 -84 42 -64 54 -139 29 -198 -22 -53
-138 -206 -156 -206 -8 0 -77 19 -153 42 -122 37 -137 44 -121 55 10 7 29 13
42 13 13 0 35 9 49 20 32 25 31 25 -56 -5 -60 -20 -72 -22 -69 -9 2 9 26 24
53 34 81 29 148 60 142 66 -3 3 -38 -7 -79 -21 -40 -15 -102 -35 -138 -45 -36
-10 -61 -19 -56 -19 5 -1 7 -3 4 -7 -3 -3 -75 22 -160 55 -85 34 -158 61 -162
61 -4 0 -50 20 -102 45 -61 29 -92 50 -88 57 5 7 3 8 -5 4 -14 -9 -71 12 -71
26 0 5 4 7 9 4 5 -4 7 3 4 13 -4 16 -8 17 -18 8 -7 -7 -10 -16 -7 -21 3 -5 0
-6 -6 -2 -26 16 -12 43 31 62 23 10 44 21 47 25 10 12 69 18 72 7 3 -7 12 -9
24 -4 18 7 17 9 -6 18 -13 5 -34 7 -46 4 -30 -8 -37 4 -12 23 20 17 19 17 -16
18 -20 1 -36 -3 -36 -7 0 -4 -11 -10 -25 -12 -37 -8 -30 10 13 30 20 9 40 22
44 29 5 6 17 9 28 6 15 -4 20 0 20 16 0 27 20 27 27 0 4 -13 12 -19 27 -17 11
1 27 -2 35 -6 9 -6 18 -3 26 7 7 10 19 17 28 17 10 0 13 6 10 20 -12 44 19 61
72 41z m185 -1 c19 -12 -30 -16 -130 -10 -29 1 -32 3 -15 10 28 12 127 12 145
0z m-512 -6 c14 -4 21 -12 18 -20 -3 -8 0 -14 7 -14 7 -1 -1 -8 -16 -16 -26
-14 -30 -14 -48 2 -17 16 -19 16 -19 1 0 -13 -9 -17 -33 -17 -18 0 -39 -6 -45
-12 -9 -9 -15 -9 -20 -2 -4 5 -37 10 -75 11 -37 0 -67 5 -68 9 -1 11 111 41
196 53 82 12 77 11 103 5z m59 0 c-3 -3 -12 -4 -19 -1 -8 3 -5 6 6 6 11 1 17
-2 13 -5z m557 0 c9 -3 13 -10 10 -15 -3 -5 0 -9 5 -9 6 0 11 5 11 10 0 6 6
10 14 10 9 0 12 -7 9 -20 -7 -25 -10 -25 -50 -1 -17 11 -40 17 -51 14 -11 -2
-23 0 -26 6 -8 12 50 16 78 5z m-1253 -27 c-10 -9 -11 -8 -5 6 3 10 9 15 12
12 3 -3 0 -11 -7 -18z m-116 -47 c13 0 29 -29 21 -37 -8 -8 -74 17 -86 32 -14
17 -3 38 16 31 7 -3 17 0 21 7 5 8 9 4 11 -10 2 -13 9 -23 17 -23z m56 24 c14
-13 16 -20 7 -34 -13 -20 -22 -14 -46 28 -10 19 -10 22 5 22 9 0 24 -7 34 -16z
m-101 -54 c8 -5 11 -12 8 -15 -9 -9 -68 5 -68 16 0 12 41 11 60 -1z m455 -154
c4 -32 3 -46 -4 -42 -5 4 -8 13 -5 20 3 8 1 17 -5 21 -6 3 -11 23 -11 43 1 49
15 24 25 -42z m305 -44 c194 -81 275 -112 299 -117 12 -2 33 -11 48 -19 37
-19 296 -117 403 -151 47 -15 101 -36 120 -46 20 -9 53 -20 73 -24 21 -4 39
-10 41 -14 6 -9 -22 -150 -35 -184 -20 -48 -62 -74 -157 -96 -143 -33 -275
-29 -544 20 -67 12 -158 47 -158 61 0 6 11 8 25 6 14 -3 28 -1 31 4 3 4 10 6
15 2 5 -3 7 -10 4 -15 -4 -5 -1 -9 4 -9 14 0 14 3 -1 35 -12 26 -30 35 -26 13
2 -9 -8 -12 -29 -12 -24 2 -33 -2 -33 -15 -1 -14 -2 -14 -14 2 -7 9 -19 17
-27 17 -11 0 -11 2 1 10 8 5 11 10 5 11 -5 1 -14 2 -20 3 -22 3 -75 29 -75 37
0 5 9 4 20 -3 15 -10 22 -10 32 0 9 9 6 12 -14 12 -15 0 -30 5 -33 10 -4 6
-10 8 -14 6 -4 -3 -13 -1 -21 5 -9 5 -10 9 -3 9 6 0 10 8 8 18 -14 70 -15 72
-41 72 -17 0 -28 7 -31 20 -3 11 -9 20 -14 20 -15 0 -10 24 15 73 25 51 23 54
-28 33 -33 -14 -34 -14 -40 12 -3 15 -10 47 -15 72 -33 147 -44 209 -38 223 5
13 14 11 64 -13 32 -15 123 -55 203 -88z m-430 92 c0 -8 -4 -12 -10 -9 -5 3
-10 10 -10 16 0 5 5 9 10 9 6 0 10 -7 10 -16z m400 -34 c0 -5 -2 -10 -4 -10
-3 0 -8 5 -11 10 -3 6 -1 10 4 10 6 0 11 -4 11 -10z m-390 -44 c0 -3 -4 -8
-10 -11 -5 -3 -10 -1 -10 4 0 6 5 11 10 11 6 0 10 -2 10 -4z m-400 -49 c0 -10
-10 -12 -32 -8 -32 4 -32 5 -8 12 37 11 40 10 40 -4z m-70 -27 c0 -5 -5 -10
-11 -10 -5 0 -7 5 -4 10 3 6 8 10 11 10 2 0 4 -4 4 -10z m294 -5 c-4 -8 -12
-15 -20 -15 -17 0 -18 17 -1 23 22 9 27 7 21 -8z m-358 -20 c-18 -18 -21 -35
-6 -35 6 0 10 5 10 10 0 6 7 10 15 10 8 0 15 -3 15 -7 -1 -21 -20 -31 -70 -38
-53 -8 -54 -8 -25 -18 17 -5 33 -14 36 -20 5 -6 18 -6 38 1 17 6 31 8 31 4 0
-4 12 -8 28 -8 15 -1 21 1 15 3 -15 5 -17 23 -4 23 5 0 12 -9 16 -20 5 -15 14
-19 41 -18 19 1 36 -1 39 -3 2 -3 -16 -39 -42 -80 -25 -41 -59 -102 -76 -136
-16 -35 -33 -65 -37 -68 -5 -3 -20 0 -33 6 -33 15 -101 0 -105 -24 -2 -11 3
-17 14 -17 9 0 23 -8 30 -17 10 -15 15 -16 25 -5 17 16 35 16 21 -1 -7 -8 -7
-18 -2 -27 6 -10 0 -31 -20 -67 -17 -29 -44 -78 -61 -108 -48 -85 -27 -65 40
38 33 50 72 107 87 126 25 30 29 31 40 16 8 -11 14 -13 19 -5 4 6 13 9 21 6 8
-3 17 1 21 9 4 12 8 13 20 3 11 -9 16 -9 23 1 4 8 14 11 21 9 8 -3 19 4 26 16
11 19 12 19 13 3 0 -14 5 -17 21 -12 13 4 28 0 41 -12 12 -10 18 -12 14 -5 -8
14 10 17 19 3 8 -15 54 -6 73 13 16 16 15 17 -10 11 -22 -6 -28 -4 -28 9 0 9
4 16 9 16 18 0 71 -22 71 -30 0 -5 11 -7 24 -4 18 3 30 -3 45 -22 24 -31 28
-24 6 9 -9 15 -11 27 -5 37 9 13 11 13 20 0 12 -19 61 -24 54 -5 -3 7 -1 16 5
20 6 3 11 -1 11 -10 0 -9 4 -14 10 -10 11 7 3 30 -23 68 -21 31 -30 80 -14 74
6 -2 14 -10 18 -18 4 -8 15 -31 25 -52 10 -21 21 -32 23 -26 2 6 -3 22 -10 35
-11 21 -10 27 4 41 15 15 17 14 28 -13 11 -30 8 -188 -4 -200 -4 -4 -15 0 -25
9 -16 15 -19 15 -19 2 0 -8 5 -15 11 -15 6 0 17 -4 24 -8 34 -22 -125 -389
-200 -464 -83 -83 -202 -115 -346 -94 -103 16 -125 28 -238 142 -44 44 -119
106 -166 137 -138 91 -187 165 -210 321 -10 62 -8 76 17 165 34 117 66 182
101 210 15 12 23 21 19 21 -4 0 -2 7 5 15 7 8 20 15 28 15 13 0 12 -3 -4 -16
-19 -15 -19 -15 1 -10 48 12 111 26 124 26 11 0 11 -3 1 -15 -7 -8 -9 -15 -4
-15 16 0 39 19 39 32 0 7 9 14 20 16 11 2 39 13 63 23 52 24 116 46 121 43 2
-2 -4 -10 -13 -19z m444 -25 c0 -5 -2 -10 -4 -10 -3 0 -8 5 -11 10 -3 6 -1 10
4 10 6 0 11 -4 11 -10z m1861 -140 c57 -68 182 -210 279 -315 246 -267 358
-402 457 -550 162 -244 213 -391 213 -608 -1 -199 -44 -355 -133 -480 -102
-143 -240 -204 -444 -195 -84 3 -107 8 -165 35 -87 41 -151 105 -193 196 -31
65 -71 189 -90 275 l-7 34 79 -7 78 -7 12 43 c24 86 25 94 6 111 -10 9 -74 41
-143 71 -69 29 -142 65 -163 80 -21 14 -59 30 -85 36 -57 12 -339 141 -474
217 -284 159 -523 407 -647 667 -63 134 -64 133 29 77 170 -102 325 -145 570
-157 156 -7 247 7 340 53 80 40 125 87 140 146 38 147 40 151 143 284 20 27
45 70 54 96 14 37 20 45 29 35 6 -6 58 -68 115 -137z m-1946 120 c3 -11 10
-20 16 -20 5 0 8 -11 7 -25 -3 -30 -19 -32 -36 -5 -7 11 -17 20 -24 20 -6 0
-3 -9 7 -20 10 -11 15 -28 12 -39 -3 -14 2 -21 19 -25 26 -7 33 -26 9 -26 -8
0 -15 -4 -15 -10 0 -5 11 -10 25 -10 14 0 25 -4 25 -10 0 -5 7 -10 15 -10 8 0
15 -6 15 -14 0 -26 -12 -46 -28 -46 -16 0 -52 28 -52 41 0 11 -72 80 -78 74
-3 -3 5 -18 19 -33 42 -46 66 -86 74 -120 7 -32 6 -32 -34 -32 -33 0 -43 5
-63 33 -26 38 -65 79 -53 57 5 -8 17 -27 27 -42 10 -14 15 -33 12 -42 -4 -11
0 -16 12 -16 20 -1 -52 -39 -73 -40 -7 0 -13 -7 -13 -15 0 -18 -12 -19 -28 -3
-9 9 -19 7 -42 -10 -31 -23 -55 -28 -64 -13 -8 12 44 126 91 205 65 107 114
167 148 182 19 7 36 18 40 24 10 16 23 12 30 -10z m111 -65 c20 -31 31 -26 14
6 -12 22 -12 22 31 14 24 -4 52 -8 61 -8 32 -2 30 -27 -2 -34 -17 -3 -33 -9
-35 -13 -3 -5 -15 -6 -28 -2 -22 5 -22 5 -3 -16 11 -12 15 -22 11 -22 -4 0 2
-8 13 -19 25 -21 29 -66 6 -75 -10 -4 -19 3 -27 22 -7 15 -25 49 -42 76 -19
34 -25 51 -17 54 8 2 4 11 -10 23 -19 15 -20 18 -6 19 10 0 25 -11 34 -25z
m-50 -42 c-7 -7 -26 7 -26 19 0 6 6 6 15 -2 9 -7 13 -15 11 -17z m1199 7 c3
-5 1 -10 -4 -10 -6 0 -11 5 -11 10 0 6 2 10 4 10 3 0 8 -4 11 -10z m-1005 -10
c0 -5 -4 -10 -10 -10 -5 0 -10 5 -10 10 0 6 5 10 10 10 6 0 10 -4 10 -10z
m-169 -27 c12 -15 12 -16 -4 -10 -10 4 -23 7 -28 7 -6 0 -7 5 -4 10 9 15 21
12 36 -7z m184 -23 c3 -5 1 -10 -4 -10 -6 0 -11 5 -11 10 0 6 2 10 4 10 3 0 8
-4 11 -10z m-146 -39 c8 -5 11 -16 8 -25 -4 -9 -1 -16 5 -16 6 0 8 -3 5 -7 -4
-3 -15 1 -25 10 -10 10 -21 14 -25 11 -3 -3 -3 3 0 15 6 23 11 25 32 12z m-39
-91 c0 -5 -2 -10 -4 -10 -3 0 -8 5 -11 10 -3 6 -1 10 4 10 6 0 11 -4 11 -10z
m-16 -36 c5 -14 4 -15 -9 -4 -17 14 -19 20 -6 20 5 0 12 -7 15 -16z m-19 -13
c3 -5 1 -12 -5 -16 -5 -3 -10 1 -10 9 0 18 6 21 15 7z m-75 -51 c0 -5 -7 -7
-15 -4 -8 4 -15 8 -15 10 0 2 7 4 15 4 8 0 15 -4 15 -10z m1032 -774 c100 -65
294 -167 420 -222 l87 -37 -36 -28 c-20 -16 -39 -29 -44 -29 -21 0 -198 97
-305 168 -119 78 -288 228 -357 316 -26 34 -16 28 58 -35 50 -42 129 -102 177
-133z m911 -418 c48 -18 87 -38 87 -44 0 -19 -26 -35 -45 -27 -16 6 -16 8 6
17 22 9 20 11 -21 13 -86 6 -106 12 -118 39 -20 44 -22 44 91 2z m-47 -87 c5
-5 20 -11 34 -14 l25 -4 -26 -2 c-14 0 -34 6 -45 14 -10 8 -14 15 -8 15 5 0
14 -4 20 -9z"/>
<path d="M1635 6659 c-4 -11 -4 -23 -1 -26 3 -4 6 1 6 10 0 10 7 17 15 17 8 0
15 5 15 10 0 19 -29 10 -35 -11z"/>
<path d="M1710 6590 c0 -5 5 -10 10 -10 6 0 10 5 10 10 0 6 -4 10 -10 10 -5 0
-10 -4 -10 -10z"/>
<path d="M2226 6517 c-60 -23 -104 -43 -99 -44 9 -3 212 73 222 83 10 10 -21
0 -123 -39z"/>
<path d="M1790 6447 c0 -9 4 -18 9 -21 5 -4 8 1 7 9 -3 21 -16 31 -16 12z"/>
<path d="M2150 6440 c-12 -8 -12 -10 5 -9 11 0 29 4 40 9 18 8 18 9 -5 9 -14
0 -32 -4 -40 -9z"/>
<path d="M1841 6394 c0 -11 3 -14 6 -6 3 7 2 16 -1 19 -3 4 -6 -2 -5 -13z"/>
<path d="M2058 6393 c7 -3 16 -2 19 1 4 3 -2 6 -13 5 -11 0 -14 -3 -6 -6z"/>
<path d="M1870 6335 c0 -14 -1 -28 -2 -32 -1 -5 6 -10 16 -11 11 -2 19 4 23
17 3 12 10 21 15 21 22 0 0 24 -25 27 -23 3 -27 0 -27 -22z"/>
<path d="M2015 6250 c-3 -5 -2 -10 4 -10 5 0 13 5 16 10 3 6 2 10 -4 10 -5 0
-13 -4 -16 -10z"/>
<path d="M1011 6254 c-1 -6 8 -36 18 -67 11 -30 18 -57 16 -59 -1 -1 6 -11 16
-22 14 -14 12 -3 -10 55 -16 41 -31 81 -34 89 -3 8 -6 10 -6 4z"/>
<path d="M1102 6160 c0 -14 2 -19 5 -12 2 6 2 18 0 25 -3 6 -5 1 -5 -13z"/>
<path d="M1403 6083 c-18 -7 -16 -23 2 -23 8 0 15 7 15 15 0 8 -1 15 -2 14 -2
0 -9 -3 -15 -6z"/>
<path d="M1183 6046 c4 -10 7 -22 7 -27 0 -5 8 -9 18 -8 10 0 12 3 5 6 -7 2
-13 11 -13 18 0 8 -5 17 -12 21 -8 5 -9 2 -5 -10z"/>
<path d="M1230 6036 c0 -9 7 -16 16 -16 17 0 14 22 -4 28 -7 2 -12 -3 -12 -12z"/>
<path d="M1328 5963 c7 -3 16 -2 19 1 4 3 -2 6 -13 5 -11 0 -14 -3 -6 -6z"/>
<path d="M1238 5753 c7 -3 16 -2 19 1 4 3 -2 6 -13 5 -11 0 -14 -3 -6 -6z"/>
<path d="M2765 5640 c3 -5 1 -10 -5 -10 -14 0 -45 -30 -53 -52 -5 -13 6 -10
53 13 67 33 78 35 60 14 -19 -23 16 -20 41 3 19 19 19 19 -6 30 -32 15 -99 16
-90 2z"/>
<path d="M2110 5472 c0 -4 9 -8 19 -8 11 0 17 4 15 8 -3 4 -12 8 -20 8 -8 0
-14 -4 -14 -8z"/>
<path d="M2470 5320 c-7 -52 -4 -65 15 -68 17 -3 17 -1 5 8 -13 9 -13 12 3 24
21 16 22 26 3 26 -8 0 -17 6 -19 13 -4 8 -6 8 -7 -3z"/>
<path d="M1845 5131 c-3 -5 -1 -12 5 -16 5 -3 10 1 10 9 0 18 -6 21 -15 7z"/>
<path d="M2566 5115 c-11 -8 -15 -15 -10 -15 6 0 19 7 30 15 10 8 15 14 9 14
-5 0 -19 -6 -29 -14z"/>
<path d="M2196 4863 c-6 -14 -5 -15 5 -6 7 7 10 15 7 18 -3 3 -9 -2 -12 -12z"/>
<path d="M1076 5185 c7 -17 20 -20 28 -6 3 5 -1 12 -10 15 -22 9 -24 8 -18 -9z"/>
<path d="M1038 5183 c7 -3 16 -2 19 1 4 3 -2 6 -13 5 -11 0 -14 -3 -6 -6z"/>
<path d="M995 5040 c-4 -6 11 -10 37 -9 33 0 38 2 23 9 -28 12 -53 12 -60 0z"/>
<path d="M990 4990 c13 -9 13 -11 0 -19 -8 -5 -18 -7 -23 -4 -5 3 -7 0 -5 -8
3 -8 12 -12 19 -10 8 2 33 8 57 13 57 13 49 32 -14 36 -36 2 -45 0 -34 -8z"/>
<path d="M1526 4807 c3 -10 9 -15 12 -12 3 3 0 11 -7 18 -10 9 -11 8 -5 -6z"/>
<path d="M1150 4800 c13 -9 13 -11 0 -20 -12 -8 -11 -10 7 -10 12 0 25 5 29
11 7 12 -13 29 -36 29 -13 0 -13 -1 0 -10z"/>
<path d="M1420 4801 c0 -6 4 -13 10 -16 6 -3 7 1 4 9 -7 18 -14 21 -14 7z"/>
<path d="M1570 4787 c0 -8 9 -22 20 -32 19 -17 19 -17 7 14 -12 32 -27 42 -27
18z"/>
<path d="M1340 4759 c0 -5 5 -7 10 -4 6 3 10 8 10 11 0 2 -4 4 -10 4 -5 0 -10
-5 -10 -11z"/>
<path d="M1234 4738 c-5 -7 -2 -9 9 -5 9 3 17 1 19 -4 2 -6 11 -7 21 -4 9 4
14 11 11 16 -8 13 -52 11 -60 -3z"/>
<path d="M1177 4708 c-8 -29 -4 -32 11 -8 6 10 8 21 3 24 -5 3 -11 -4 -14 -16z"/>
<path d="M1438 4723 c7 -3 16 -2 19 1 4 3 -2 6 -13 5 -11 0 -14 -3 -6 -6z"/>
<path d="M1070 4685 c0 -16 16 -20 24 -6 3 5 -1 11 -9 15 -9 3 -15 0 -15 -9z"/>
<path d="M1280 5116 c0 -2 7 -9 15 -16 9 -7 15 -8 15 -2 0 5 -7 12 -15 16 -8
3 -15 4 -15 2z"/>
<path d="M1421 5064 c0 -11 3 -14 6 -6 3 7 2 16 -1 19 -3 4 -6 -2 -5 -13z"/>
<path d="M1555 5199 c-11 -17 1 -21 15 -4 8 9 8 15 2 15 -6 0 -14 -5 -17 -11z"/>
<path d="M12147 6809 c-118 -23 -226 -99 -274 -194 -19 -35 -28 -72 -31 -123
-4 -66 -2 -78 27 -136 37 -76 92 -128 175 -167 164 -76 362 -49 486 67 71 66
102 134 102 223 0 221 -231 378 -485 330z"/>
<path d="M10765 6543 c-57 -210 -228 -421 -439 -542 -90 -51 -181 -84 -298
-107 l-88 -17 0 -83 0 -83 138 -3 137 -3 5 -985 c5 -913 6 -989 23 -1038 58
-172 183 -287 360 -333 71 -18 101 -20 217 -16 230 9 351 58 490 197 71 70 96
105 149 203 35 65 62 120 60 121 -2 2 -18 11 -35 19 l-32 16 -41 -64 c-46 -71
-118 -139 -170 -161 -84 -35 -194 -5 -235 66 -21 35 -21 47 -24 1008 l-2 972
239 0 c212 0 246 2 305 20 126 39 195 122 216 258 20 127 -14 223 -94 261
-123 60 -249 -30 -221 -159 9 -40 37 -66 103 -95 56 -26 67 -49 34 -78 -32
-29 -104 -37 -344 -37 l-238 0 0 365 0 365 -99 0 -98 0 -18 -67z"/>
<path d="M6375 5900 c-88 -16 -228 -60 -303 -95 -234 -110 -415 -309 -532
-583 -133 -313 -143 -811 -24 -1144 150 -417 463 -680 884 -744 122 -18 222
-18 337 1 408 66 704 312 867 723 123 309 138 772 35 1092 -58 178 -176 370
-296 481 -131 120 -262 191 -451 241 -106 28 -134 31 -292 34 -96 1 -197 -1
-225 -6z m304 -256 c73 -31 140 -118 185 -244 109 -302 112 -1181 5 -1525 -64
-209 -159 -305 -299 -305 -205 0 -322 207 -360 635 -14 159 -14 666 0 830 31
365 130 577 288 622 53 14 128 9 181 -13z"/>
<path d="M8341 5895 c-149 -34 -248 -75 -366 -155 -97 -66 -104 -75 -76 -104
l23 -24 41 24 c49 28 123 32 167 9 17 -9 40 -34 52 -58 l23 -42 5 -1025 5
-1025 23 -38 c31 -49 77 -83 148 -110 51 -18 80 -21 204 -21 128 0 152 3 203
23 70 27 122 70 145 120 15 33 17 112 22 876 l5 840 98 76 c106 82 241 158
326 183 79 23 175 21 229 -5 48 -23 97 -83 107 -130 6 -25 11 -29 39 -29 32 0
34 2 55 73 34 115 43 185 39 287 -4 116 -29 174 -91 220 -54 40 -106 53 -192
48 -89 -4 -187 -50 -287 -132 -72 -60 -218 -224 -283 -320 l-40 -58 -12 98
c-25 208 -95 321 -239 386 -41 18 -70 22 -179 25 -87 2 -151 -2 -194 -12z"/>
<path d="M12045 5894 c-160 -38 -245 -76 -378 -167 l-88 -60 23 -26 c13 -14
24 -28 25 -30 1 -2 16 7 34 20 39 27 125 37 169 19 16 -7 40 -29 52 -49 l23
-36 5 -1025 5 -1025 23 -48 c28 -55 82 -97 163 -124 75 -25 290 -26 371 0 72
22 136 71 168 127 l25 45 3 970 c3 1031 -1 1159 -39 1240 -39 83 -107 136
-218 169 -69 20 -280 20 -366 0z"/>
</g>
</svg>
